<svg width="1360" height="722" viewBox="0 0 1360 722" fill="none" xmlns="http://www.w3.org/2000/svg">
<g clip-path="url(#clip0_126_134)">
<g filter="url(#filter0_f_126_134)">
<rect x="1004" y="94.9961" width="405.241" height="385.465" rx="113" transform="rotate(-38.2705 1004 94.9961)" fill="#5B0F0F"/>
</g>
<g filter="url(#filter1_f_126_134)">
<rect x="117.823" y="106" width="374.459" height="309.103" transform="rotate(29.4176 117.823 106)" fill="#16300E"/>
</g>
<g filter="url(#filter2_f_126_134)">
<path d="M1.12072 15.0489C-36.8793 -16.9511 904.085 -2.9511 904.085 -2.9511L1022.59 192.549L741.121 205.049L488.121 154.049C488.121 154.049 39.1207 47.0489 1.12072 15.0489Z" fill="#0C253D"/>
</g>
<path d="M791.963 153V120.273H811.587V123.788H795.926V134.847H810.116V138.362H795.926V153H791.963ZM826.033 153.511C823.817 153.511 821.873 152.984 820.2 151.929C818.538 150.875 817.238 149.399 816.301 147.503C815.374 145.607 814.911 143.391 814.911 140.855C814.911 138.298 815.374 136.066 816.301 134.159C817.238 132.252 818.538 130.772 820.2 129.717C821.873 128.662 823.817 128.135 826.033 128.135C828.249 128.135 830.188 128.662 831.849 129.717C833.522 130.772 834.822 132.252 835.749 134.159C836.686 136.066 837.155 138.298 837.155 140.855C837.155 143.391 836.686 145.607 835.749 147.503C834.822 149.399 833.522 150.875 831.849 151.929C830.188 152.984 828.249 153.511 826.033 153.511ZM826.033 150.124C827.716 150.124 829.101 149.692 830.188 148.829C831.274 147.966 832.078 146.832 832.6 145.425C833.123 144.019 833.384 142.496 833.384 140.855C833.384 139.214 833.123 137.686 832.6 136.269C832.078 134.852 831.274 133.707 830.188 132.833C829.101 131.96 827.716 131.523 826.033 131.523C824.349 131.523 822.964 131.96 821.878 132.833C820.791 133.707 819.987 134.852 819.465 136.269C818.943 137.686 818.682 139.214 818.682 140.855C818.682 142.496 818.943 144.019 819.465 145.425C819.987 146.832 820.791 147.966 821.878 148.829C822.964 149.692 824.349 150.124 826.033 150.124ZM842.912 153V128.455H846.555V132.162H846.811C847.258 130.947 848.068 129.962 849.24 129.206C850.412 128.449 851.733 128.071 853.203 128.071C853.48 128.071 853.826 128.076 854.242 128.087C854.657 128.098 854.971 128.114 855.184 128.135V131.97C855.057 131.938 854.764 131.89 854.305 131.826C853.858 131.752 853.384 131.714 852.883 131.714C851.69 131.714 850.625 131.965 849.687 132.466C848.76 132.956 848.025 133.637 847.482 134.511C846.949 135.374 846.683 136.359 846.683 137.467V153H842.912ZM870.01 120.273H874.548L883.625 135.55H884.009L893.085 120.273H897.624L885.798 139.513V153H881.835V139.513L870.01 120.273ZM908.738 153.511C906.522 153.511 904.578 152.984 902.905 151.929C901.243 150.875 899.943 149.399 899.006 147.503C898.079 145.607 897.616 143.391 897.616 140.855C897.616 138.298 898.079 136.066 899.006 134.159C899.943 132.252 901.243 130.772 902.905 129.717C904.578 128.662 906.522 128.135 908.738 128.135C910.954 128.135 912.893 128.662 914.555 129.717C916.227 130.772 917.527 132.252 918.454 134.159C919.391 136.066 919.86 138.298 919.86 140.855C919.86 143.391 919.391 145.607 918.454 147.503C917.527 149.399 916.227 150.875 914.555 151.929C912.893 152.984 910.954 153.511 908.738 153.511ZM908.738 150.124C910.421 150.124 911.806 149.692 912.893 148.829C913.979 147.966 914.784 146.832 915.306 145.425C915.828 144.019 916.089 142.496 916.089 140.855C916.089 139.214 915.828 137.686 915.306 136.269C914.784 134.852 913.979 133.707 912.893 132.833C911.806 131.96 910.421 131.523 908.738 131.523C907.055 131.523 905.67 131.96 904.583 132.833C903.496 133.707 902.692 134.852 902.17 136.269C901.648 137.686 901.387 139.214 901.387 140.855C901.387 142.496 901.648 144.019 902.17 145.425C902.692 146.832 903.496 147.966 904.583 148.829C905.67 149.692 907.055 150.124 908.738 150.124ZM941.085 142.964V128.455H944.857V153H941.085V148.845H940.83C940.255 150.092 939.36 151.152 938.145 152.025C936.931 152.888 935.397 153.32 933.543 153.32C932.009 153.32 930.645 152.984 929.452 152.313C928.259 151.631 927.321 150.608 926.639 149.245C925.958 147.87 925.617 146.139 925.617 144.051V128.455H929.388V143.795C929.388 145.585 929.889 147.013 930.89 148.078C931.902 149.143 933.191 149.676 934.757 149.676C935.695 149.676 936.648 149.436 937.618 148.957C938.598 148.478 939.418 147.743 940.079 146.752C940.75 145.761 941.085 144.499 941.085 142.964Z" fill="#C4F9D2"/>
<g filter="url(#filter3_d_126_134)">
<path d="M98.0281 126V128H99.4806L99.9299 126.619L98.0281 126ZM84.0224 126L82.1319 125.347L81.2161 128H84.0224V126ZM105.363 64.1818V62.1818H103.938L103.472 63.5292L105.363 64.1818ZM122.206 64.1818L124.097 63.53L123.632 62.1818H122.206V64.1818ZM143.516 126V128H146.321L145.407 125.348L143.516 126ZM129.511 126L127.608 126.618L128.057 128H129.511V126ZM114.026 78.3082L115.928 77.6906L115.479 76.3082H114.026V78.3082ZM113.543 78.3082V76.3082H112.09L111.641 77.6895L113.543 78.3082ZM97.1527 101.701V99.7013H95.1527V101.701H97.1527ZM130.235 101.701H132.235V99.7013H130.235V101.701ZM130.235 111.904V113.904H132.235V111.904H130.235ZM97.1527 111.904H95.1527V113.904H97.1527V111.904ZM98.0281 124H84.0224V128H98.0281V124ZM85.9129 126.653L107.253 64.8345L103.472 63.5292L82.1319 125.347L85.9129 126.653ZM105.363 66.1818H122.206V62.1818H105.363V66.1818ZM120.315 64.8336L141.626 126.652L145.407 125.348L124.097 63.53L120.315 64.8336ZM143.516 124H129.511V128H143.516V124ZM131.413 125.382L115.928 77.6906L112.124 78.9259L127.608 126.618L131.413 125.382ZM114.026 76.3082H113.543V80.3082H114.026V76.3082ZM111.641 77.6895L96.1262 125.381L99.9299 126.619L115.445 78.927L111.641 77.6895ZM97.1527 103.701H130.235V99.7013H97.1527V103.701ZM128.235 101.701V111.904H132.235V101.701H128.235ZM130.235 109.904H97.1527V113.904H130.235V109.904ZM99.1527 111.904V101.701H95.1527V111.904H99.1527ZM188.129 79.6364L190.017 80.2964L190.947 77.6364H188.129V79.6364ZM171.92 126V128H173.34L173.808 126.66L171.92 126ZM157.431 126L155.544 126.66L156.012 128H157.431V126ZM141.222 79.6364V77.6364H138.404L139.334 80.2964L141.222 79.6364ZM154.805 79.6364L156.726 79.0788L156.307 77.6364H154.805V79.6364ZM164.434 112.809L162.514 113.367L162.932 114.809H164.434V112.809ZM164.917 112.809V114.809H166.421L166.838 113.365L164.917 112.809ZM174.516 79.6364V77.6364H173.013L172.595 79.0805L174.516 79.6364ZM186.241 78.9763L170.032 125.34L173.808 126.66L190.017 80.2964L186.241 78.9763ZM171.92 124H157.431V128H171.92V124ZM159.319 125.34L143.11 78.9763L139.334 80.2964L155.544 126.66L159.319 125.34ZM141.222 81.6364H154.805V77.6364H141.222V81.6364ZM152.885 80.1939L162.514 113.367L166.355 112.252L156.726 79.0788L152.885 80.1939ZM164.434 114.809H164.917V110.809H164.434V114.809ZM166.838 113.365L176.437 80.1923L172.595 79.0805L162.996 112.253L166.838 113.365ZM174.516 81.6364H188.129V77.6364H174.516V81.6364ZM198.777 125.336L197.953 127.158L197.959 127.161L197.966 127.164L198.777 125.336ZM193.283 120.718L191.604 121.804L191.61 121.814L191.617 121.823L193.283 120.718ZM192.71 106.561L190.95 105.61L190.95 105.61L192.71 106.561ZM196.573 102.335L195.478 100.662L195.478 100.662L196.573 102.335ZM202.127 99.9205L201.625 97.9846L201.62 97.9858L202.127 99.9205ZM208.708 98.7734L208.9 100.764L208.908 100.763L208.915 100.763L208.708 98.7734ZM215.228 97.9886L215.517 99.9676L215.529 99.9658L215.541 99.964L215.228 97.9886ZM218.82 96.8416L217.7 95.1844L217.7 95.1844L218.82 96.8416ZM218.125 89.9897L216.803 91.4901L216.809 91.4956L216.815 91.5011L218.125 89.9897ZM207.53 89.9595L208.715 91.5708L208.723 91.5652L208.73 91.5595L207.53 89.9595ZM204.814 93.7628L204.652 95.7562L206.281 95.8885L206.735 94.3189L204.814 93.7628ZM192.921 92.7969L190.965 92.3778L190.488 94.6059L192.759 94.7903L192.921 92.7969ZM196.483 85.4922L197.997 86.7987L198.003 86.7913L196.483 85.4922ZM203.335 80.723L204.071 82.5827L204.078 82.58L203.335 80.723ZM220.51 79.9382L220.013 81.8755L220.017 81.8765L220.51 79.9382ZM226.818 82.7454L225.68 84.3898L225.688 84.3956L226.818 82.7454ZM231.195 87.6353L229.432 88.5793L229.436 88.5867L231.195 87.6353ZM232.795 126V128H234.795V126H232.795ZM220.6 126H218.6V128H220.6V126ZM220.6 119.571H222.6V117.571H220.6V119.571ZM220.238 119.571V117.571H219.017L218.459 118.657L220.238 119.571ZM217.25 123.404L218.563 124.912L218.57 124.906L218.577 124.9L217.25 123.404ZM212.752 125.97L213.404 127.861L213.414 127.857L213.424 127.854L212.752 125.97ZM215.378 116.884L216.293 118.663L216.302 118.658L216.312 118.653L215.378 116.884ZM218.789 113.805L217.105 112.727L217.105 112.727L218.789 113.805ZM220.027 104.509H222.027V100.823L218.937 102.832L220.027 104.509ZM218.367 105.233L218.931 107.152L218.949 107.146L218.966 107.141L218.367 105.233ZM216.043 105.806L216.408 107.773L216.43 107.769L216.452 107.764L216.043 105.806ZM213.447 106.259L213.723 108.24L213.746 108.237L213.768 108.233L213.447 106.259ZM211.092 106.591L210.809 104.611L210.802 104.612L211.092 106.591ZM207.138 107.648L207.926 109.486L207.926 109.486L207.138 107.648ZM204.512 109.61L206.093 110.835L206.1 110.825L206.107 110.816L204.512 109.61ZM205.478 116.643L204.299 118.258L204.313 118.269L204.328 118.279L205.478 116.643ZM206.685 124.875C203.96 124.875 201.607 124.403 199.588 123.508L197.966 127.164C200.575 128.321 203.494 128.875 206.685 128.875V124.875ZM199.601 123.514C197.615 122.615 196.081 121.318 194.95 119.612L191.617 121.823C193.182 124.182 195.311 125.964 197.953 127.158L199.601 123.514ZM194.962 119.631C193.891 117.975 193.291 115.821 193.291 113.051H189.291C189.291 116.398 190.02 119.355 191.604 121.804L194.962 119.631ZM193.291 113.051C193.291 110.712 193.721 108.897 194.469 107.512L190.95 105.61C189.807 107.727 189.291 110.238 189.291 113.051H193.291ZM194.469 107.512C195.261 106.047 196.323 104.889 197.668 104.009L195.478 100.662C193.564 101.914 192.05 103.574 190.95 105.61L194.469 107.512ZM197.668 104.009C199.101 103.072 200.75 102.349 202.635 101.855L201.62 97.9858C199.36 98.5784 197.306 99.4657 195.478 100.662L197.668 104.009ZM202.63 101.856C204.614 101.341 206.704 100.976 208.9 100.764L208.516 96.7827C206.124 97.0135 203.826 97.4132 201.625 97.9846L202.63 101.856ZM208.915 100.763C211.625 100.48 213.828 100.215 215.517 99.9676L214.938 96.0097C213.326 96.2455 211.184 96.5039 208.5 96.7843L208.915 100.763ZM215.541 99.964C217.273 99.6893 218.824 99.2522 219.939 98.4988L217.7 95.1844C217.326 95.4372 216.482 95.7648 214.914 96.0133L215.541 99.964ZM219.939 98.4988C221.294 97.5831 221.936 96.1822 221.936 94.608H217.936C217.936 95.0058 217.834 95.094 217.7 95.1844L219.939 98.4988ZM221.936 94.608V94.4268H217.936V94.608H221.936ZM221.936 94.4268C221.936 92.0601 221.167 89.9795 219.435 88.4783L216.815 91.5011C217.498 92.0927 217.936 92.9702 217.936 94.4268H221.936ZM219.448 88.4893C217.775 87.0152 215.547 86.4201 213.054 86.4201V90.4201C214.949 90.4201 216.101 90.8714 216.803 91.4901L219.448 88.4893ZM213.054 86.4201C210.458 86.4201 208.149 86.9957 206.33 88.3595L208.73 91.5595C209.649 90.8708 211.022 90.4201 213.054 90.4201V86.4201ZM206.346 88.3482C204.648 89.5968 203.466 91.2249 202.893 93.2067L206.735 94.3189C207.047 93.242 207.677 92.3346 208.715 91.5708L206.346 88.3482ZM204.976 91.7693L193.083 90.8034L192.759 94.7903L204.652 95.7562L204.976 91.7693ZM194.877 93.2159C195.415 90.7056 196.459 88.5811 197.997 86.7987L194.969 84.1857C192.965 86.5084 191.635 89.2537 190.965 92.3778L194.877 93.2159ZM198.003 86.7913C199.541 84.9916 201.545 83.5821 204.071 82.5827L202.599 78.8633C199.53 80.0775 196.966 81.8474 194.962 84.193L198.003 86.7913ZM204.078 82.58C206.613 81.5659 209.612 81.0327 213.115 81.0327V77.0327C209.212 77.0327 205.691 77.6264 202.592 78.8661L204.078 82.58ZM213.115 81.0327C215.533 81.0327 217.83 81.3159 220.013 81.8755L221.007 78.0009C218.481 77.3532 215.848 77.0327 213.115 77.0327V81.0327ZM220.017 81.8765C222.184 82.4274 224.063 83.2706 225.68 84.3898L227.957 81.101C225.911 79.6846 223.585 78.6564 221.003 77.9999L220.017 81.8765ZM225.688 84.3956C227.273 85.4807 228.516 86.8677 229.432 88.5792L232.958 86.6913C231.742 84.4185 230.066 82.5455 227.948 81.0952L225.688 84.3956ZM229.436 88.5867C230.312 90.2067 230.795 92.2287 230.795 94.7287H234.795C234.795 91.715 234.211 89.008 232.954 86.6839L229.436 88.5867ZM230.795 94.7287V126H234.795V94.7287H230.795ZM232.795 124H220.6V128H232.795V124ZM222.6 126V119.571H218.6V126H222.6ZM220.6 117.571H220.238V121.571H220.6V117.571ZM218.459 118.657C217.831 119.88 216.99 120.962 215.923 121.908L218.577 124.9C220.006 123.633 221.157 122.159 222.017 120.485L218.459 118.657ZM215.936 121.896C214.899 122.799 213.625 123.536 212.081 124.086L213.424 127.854C215.381 127.156 217.105 126.182 218.563 124.912L215.936 121.896ZM212.1 124.079C210.603 124.596 208.808 124.875 206.685 124.875V128.875C209.15 128.875 211.401 128.551 213.404 127.861L212.1 124.079ZM210.368 120.001C212.526 120.001 214.519 119.575 216.293 118.663L214.464 115.105C213.341 115.683 211.993 116.001 210.368 116.001V120.001ZM216.312 118.653C218.044 117.739 219.449 116.484 220.473 114.884L217.105 112.727C216.48 113.703 215.611 114.5 214.445 115.115L216.312 118.653ZM220.473 114.884C221.518 113.253 222.027 111.415 222.027 109.429H218.027C218.027 110.702 217.71 111.782 217.105 112.727L220.473 114.884ZM222.027 109.429V104.509H218.027V109.429H222.027ZM218.937 102.832C218.745 102.956 218.381 103.132 217.767 103.325L218.966 107.141C219.762 106.891 220.504 106.584 221.117 106.185L218.937 102.832ZM217.802 103.314C217.18 103.497 216.458 103.676 215.633 103.849L216.452 107.764C217.358 107.575 218.186 107.371 218.931 107.152L217.802 103.314ZM215.677 103.84C214.826 103.998 213.976 104.147 213.125 104.285L213.768 108.233C214.648 108.09 215.528 107.936 216.408 107.773L215.677 103.84ZM213.17 104.278C212.303 104.399 211.516 104.51 210.809 104.611L211.375 108.571C212.077 108.471 212.859 108.361 213.723 108.24L213.17 104.278ZM210.802 104.612C209.161 104.853 207.669 105.244 206.35 105.809L207.926 109.486C208.861 109.085 210.005 108.772 211.382 108.57L210.802 104.612ZM206.35 105.809C204.963 106.404 203.786 107.254 202.917 108.404L206.107 110.816C206.486 110.316 207.059 109.858 207.926 109.486L206.35 105.809ZM202.931 108.385C201.988 109.602 201.576 111.063 201.576 112.628H205.576C205.576 111.779 205.789 111.227 206.093 110.835L202.931 108.385ZM201.576 112.628C201.576 114.932 202.45 116.908 204.299 118.258L206.657 115.028C205.97 114.526 205.576 113.825 205.576 112.628H201.576ZM204.328 118.279C206.029 119.475 208.089 120.001 210.368 120.001V116.001C208.703 116.001 207.503 115.622 206.628 115.007L204.328 118.279ZM242.771 126H240.771V128H242.771V126ZM242.771 79.6364V77.6364H240.771V79.6364H242.771ZM255.63 79.6364H257.63V77.6364H255.63V79.6364ZM255.63 126V128H257.63V126H255.63ZM244.31 71.7582L242.929 73.2044L242.94 73.2149L242.951 73.2253L244.31 71.7582ZM244.31 62.582L245.681 64.0391L245.681 64.0384L244.31 62.582ZM254.12 62.582L252.739 64.0283L252.75 64.0388L252.761 64.0492L254.12 62.582ZM254.12 71.7582L255.491 73.2152L255.491 73.2146L254.12 71.7582ZM244.771 126V79.6364H240.771V126H244.771ZM242.771 81.6364H255.63V77.6364H242.771V81.6364ZM253.63 79.6364V126H257.63V79.6364H253.63ZM255.63 124H242.771V128H255.63V124ZM249.231 71.6598C247.809 71.6598 246.658 71.2069 245.67 70.291L242.951 73.2253C244.699 74.8449 246.829 75.6598 249.231 75.6598V71.6598ZM245.692 70.3119C244.72 69.384 244.288 68.3598 244.288 67.1399H240.288C240.288 69.5019 241.204 71.5566 242.929 73.2044L245.692 70.3119ZM244.288 67.1399C244.288 65.9482 244.714 64.948 245.681 64.0391L242.94 61.125C241.211 62.7516 240.288 64.7899 240.288 67.1399H244.288ZM245.681 64.0384C246.671 63.1064 247.819 62.6502 249.231 62.6502V58.6502C246.819 58.6502 244.686 59.4819 242.94 61.1256L245.681 64.0384ZM249.231 62.6502C250.642 62.6502 251.773 63.1057 252.739 64.0283L255.502 61.1358C253.771 59.4826 251.642 58.6502 249.231 58.6502V62.6502ZM252.761 64.0492C253.746 64.9612 254.173 65.9586 254.173 67.1399H258.173C258.173 64.7795 257.232 62.7384 255.48 61.1149L252.761 64.0492ZM254.173 67.1399C254.173 68.3496 253.739 69.3709 252.75 70.3018L255.491 73.2146C257.239 71.5696 258.173 69.5121 258.173 67.1399H254.173ZM252.75 70.3011C251.786 71.2076 250.652 71.6598 249.231 71.6598V75.6598C251.633 75.6598 253.758 74.8443 255.491 73.2152L252.75 70.3011ZM278.789 64.1818H280.789V62.1818H278.789V64.1818ZM278.789 126V128H280.789V126H278.789ZM265.93 126H263.93V128H265.93V126ZM265.93 64.1818V62.1818H263.93V64.1818H265.93ZM276.789 64.1818V126H280.789V64.1818H276.789ZM278.789 124H265.93V128H278.789V124ZM267.93 126V64.1818H263.93V126H267.93ZM265.93 66.1818H278.789V62.1818H265.93V66.1818ZM294.402 125.336L293.578 127.158L293.584 127.161L293.591 127.164L294.402 125.336ZM288.908 120.718L287.229 121.804L287.235 121.814L287.242 121.823L288.908 120.718ZM288.335 106.561L286.575 105.61L286.575 105.61L288.335 106.561ZM292.198 102.335L291.103 100.662L291.103 100.662L292.198 102.335ZM297.752 99.9205L297.25 97.9846L297.245 97.9858L297.752 99.9205ZM304.333 98.7734L304.525 100.764L304.533 100.763L304.54 100.763L304.333 98.7734ZM310.853 97.9886L311.142 99.9676L311.154 99.9658L311.166 99.964L310.853 97.9886ZM314.445 96.8416L313.325 95.1844L313.325 95.1844L314.445 96.8416ZM313.75 89.9897L312.428 91.4901L312.434 91.4956L312.44 91.5011L313.75 89.9897ZM303.155 89.9595L304.34 91.5708L304.348 91.5652L304.355 91.5595L303.155 89.9595ZM300.439 93.7628L300.277 95.7562L301.906 95.8885L302.36 94.3189L300.439 93.7628ZM288.546 92.7969L286.59 92.3778L286.113 94.6059L288.384 94.7903L288.546 92.7969ZM292.108 85.4922L293.622 86.7987L293.628 86.7913L292.108 85.4922ZM298.96 80.723L299.696 82.5827L299.703 82.58L298.96 80.723ZM316.135 79.9382L315.638 81.8755L315.642 81.8765L316.135 79.9382ZM322.443 82.7454L321.305 84.3898L321.313 84.3956L322.443 82.7454ZM326.82 87.6353L325.057 88.5793L325.061 88.5867L326.82 87.6353ZM328.42 126V128H330.42V126H328.42ZM316.225 126H314.225V128H316.225V126ZM316.225 119.571H318.225V117.571H316.225V119.571ZM315.863 119.571V117.571H314.642L314.084 118.657L315.863 119.571ZM312.875 123.404L314.188 124.912L314.195 124.906L314.202 124.9L312.875 123.404ZM308.377 125.97L309.029 127.861L309.039 127.857L309.049 127.854L308.377 125.97ZM311.003 116.884L311.918 118.663L311.927 118.658L311.937 118.653L311.003 116.884ZM314.414 113.805L312.73 112.727L312.73 112.727L314.414 113.805ZM315.652 104.509H317.652V100.823L314.562 102.832L315.652 104.509ZM313.992 105.233L314.556 107.152L314.574 107.146L314.591 107.141L313.992 105.233ZM311.668 105.806L312.033 107.773L312.055 107.769L312.077 107.764L311.668 105.806ZM309.072 106.259L309.348 108.24L309.371 108.237L309.393 108.233L309.072 106.259ZM306.717 106.591L306.434 104.611L306.427 104.612L306.717 106.591ZM302.763 107.648L303.551 109.486L303.551 109.486L302.763 107.648ZM300.137 109.61L301.718 110.835L301.725 110.825L301.732 110.816L300.137 109.61ZM301.103 116.643L299.924 118.258L299.938 118.269L299.953 118.279L301.103 116.643ZM302.31 124.875C299.585 124.875 297.232 124.403 295.213 123.508L293.591 127.164C296.2 128.321 299.119 128.875 302.31 128.875V124.875ZM295.226 123.514C293.24 122.615 291.706 121.318 290.575 119.612L287.242 121.823C288.807 124.182 290.936 125.964 293.578 127.158L295.226 123.514ZM290.587 119.631C289.516 117.975 288.916 115.821 288.916 113.051H284.916C284.916 116.398 285.645 119.355 287.229 121.804L290.587 119.631ZM288.916 113.051C288.916 110.712 289.346 108.897 290.094 107.512L286.575 105.61C285.432 107.727 284.916 110.238 284.916 113.051H288.916ZM290.094 107.512C290.886 106.047 291.948 104.889 293.293 104.009L291.103 100.662C289.189 101.914 287.675 103.574 286.575 105.61L290.094 107.512ZM293.293 104.009C294.726 103.072 296.375 102.349 298.26 101.855L297.245 97.9858C294.985 98.5784 292.931 99.4657 291.103 100.662L293.293 104.009ZM298.255 101.856C300.239 101.341 302.329 100.976 304.525 100.764L304.141 96.7827C301.749 97.0135 299.451 97.4132 297.25 97.9846L298.255 101.856ZM304.54 100.763C307.25 100.48 309.453 100.215 311.142 99.9676L310.563 96.0097C308.951 96.2455 306.809 96.5039 304.125 96.7843L304.54 100.763ZM311.166 99.964C312.898 99.6893 314.449 99.2522 315.564 98.4988L313.325 95.1844C312.951 95.4372 312.107 95.7648 310.539 96.0133L311.166 99.964ZM315.564 98.4988C316.919 97.5831 317.561 96.1822 317.561 94.608H313.561C313.561 95.0058 313.459 95.094 313.325 95.1844L315.564 98.4988ZM317.561 94.608V94.4268H313.561V94.608H317.561ZM317.561 94.4268C317.561 92.0601 316.792 89.9795 315.06 88.4783L312.44 91.5011C313.123 92.0927 313.561 92.9702 313.561 94.4268H317.561ZM315.073 88.4893C313.4 87.0152 311.172 86.4201 308.679 86.4201V90.4201C310.574 90.4201 311.726 90.8714 312.428 91.4901L315.073 88.4893ZM308.679 86.4201C306.083 86.4201 303.774 86.9957 301.955 88.3595L304.355 91.5595C305.274 90.8708 306.647 90.4201 308.679 90.4201V86.4201ZM301.971 88.3482C300.273 89.5968 299.091 91.2249 298.518 93.2067L302.36 94.3189C302.672 93.242 303.302 92.3346 304.34 91.5708L301.971 88.3482ZM300.601 91.7693L288.708 90.8034L288.384 94.7903L300.277 95.7562L300.601 91.7693ZM290.502 93.2159C291.04 90.7056 292.084 88.5811 293.622 86.7987L290.594 84.1857C288.59 86.5084 287.26 89.2537 286.59 92.3778L290.502 93.2159ZM293.628 86.7913C295.166 84.9916 297.17 83.5821 299.696 82.5827L298.224 78.8633C295.155 80.0775 292.591 81.8474 290.587 84.193L293.628 86.7913ZM299.703 82.58C302.238 81.5659 305.237 81.0327 308.74 81.0327V77.0327C304.837 77.0327 301.316 77.6264 298.217 78.8661L299.703 82.58ZM308.74 81.0327C311.158 81.0327 313.455 81.3159 315.638 81.8755L316.632 78.0009C314.106 77.3532 311.473 77.0327 308.74 77.0327V81.0327ZM315.642 81.8765C317.809 82.4274 319.688 83.2706 321.305 84.3898L323.582 81.101C321.536 79.6846 319.21 78.6564 316.628 77.9999L315.642 81.8765ZM321.313 84.3956C322.898 85.4807 324.141 86.8677 325.057 88.5792L328.583 86.6913C327.367 84.4185 325.691 82.5455 323.573 81.0952L321.313 84.3956ZM325.061 88.5867C325.937 90.2067 326.42 92.2287 326.42 94.7287H330.42C330.42 91.715 329.836 89.008 328.579 86.6839L325.061 88.5867ZM326.42 94.7287V126H330.42V94.7287H326.42ZM328.42 124H316.225V128H328.42V124ZM318.225 126V119.571H314.225V126H318.225ZM316.225 117.571H315.863V121.571H316.225V117.571ZM314.084 118.657C313.456 119.88 312.615 120.962 311.548 121.908L314.202 124.9C315.631 123.633 316.782 122.159 317.642 120.485L314.084 118.657ZM311.561 121.896C310.524 122.799 309.25 123.536 307.706 124.086L309.049 127.854C311.006 127.156 312.73 126.182 314.188 124.912L311.561 121.896ZM307.725 124.079C306.228 124.596 304.433 124.875 302.31 124.875V128.875C304.775 128.875 307.026 128.551 309.029 127.861L307.725 124.079ZM305.993 120.001C308.151 120.001 310.144 119.575 311.918 118.663L310.089 115.105C308.966 115.683 307.618 116.001 305.993 116.001V120.001ZM311.937 118.653C313.669 117.739 315.074 116.484 316.098 114.884L312.73 112.727C312.105 113.703 311.236 114.5 310.07 115.115L311.937 118.653ZM316.098 114.884C317.143 113.253 317.652 111.415 317.652 109.429H313.652C313.652 110.702 313.335 111.782 312.73 112.727L316.098 114.884ZM317.652 109.429V104.509H313.652V109.429H317.652ZM314.562 102.832C314.37 102.956 314.006 103.132 313.392 103.325L314.591 107.141C315.387 106.891 316.129 106.584 316.742 106.185L314.562 102.832ZM313.427 103.314C312.805 103.497 312.083 103.676 311.258 103.849L312.077 107.764C312.983 107.575 313.811 107.371 314.556 107.152L313.427 103.314ZM311.302 103.84C310.451 103.998 309.601 104.147 308.75 104.285L309.393 108.233C310.273 108.09 311.153 107.936 312.033 107.773L311.302 103.84ZM308.795 104.278C307.928 104.399 307.141 104.51 306.434 104.611L307 108.571C307.702 108.471 308.484 108.361 309.348 108.24L308.795 104.278ZM306.427 104.612C304.786 104.853 303.294 105.244 301.975 105.809L303.551 109.486C304.486 109.085 305.63 108.772 307.007 108.57L306.427 104.612ZM301.975 105.809C300.588 106.404 299.411 107.254 298.542 108.404L301.732 110.816C302.111 110.316 302.684 109.858 303.551 109.486L301.975 105.809ZM298.556 108.385C297.613 109.602 297.201 111.063 297.201 112.628H301.201C301.201 111.779 301.414 111.227 301.718 110.835L298.556 108.385ZM297.201 112.628C297.201 114.932 298.075 116.908 299.924 118.258L302.282 115.028C301.595 114.526 301.201 113.825 301.201 112.628H297.201ZM299.953 118.279C301.654 119.475 303.714 120.001 305.993 120.001V116.001C304.328 116.001 303.128 115.622 302.253 115.007L299.953 118.279ZM338.638 126H336.638V128H338.638V126ZM338.638 64.1818V62.1818H336.638V64.1818H338.638ZM351.496 64.1818H353.496V62.1818H351.496V64.1818ZM351.496 87.424H349.496V89.424H351.496V87.424ZM351.889 87.424V89.424H353.18L353.711 88.2472L351.889 87.424ZM354.334 83.6207L352.795 82.3427L352.793 82.3451L354.334 83.6207ZM358.559 80.3608L359.454 82.1497L359.462 82.1455L358.559 80.3608ZM374.437 81.6889L373.383 83.389L373.392 83.3943L374.437 81.6889ZM381.288 89.6275L379.487 90.4973L379.489 90.5013L381.288 89.6275ZM381.349 115.979L379.538 115.13L379.536 115.134L381.349 115.979ZM374.587 124.038L375.664 125.724L375.667 125.722L374.587 124.038ZM358.68 125.517L357.819 127.322L357.828 127.326L358.68 125.517ZM354.424 122.408L352.917 123.723L352.923 123.729L352.928 123.735L354.424 122.408ZM351.889 118.575L353.71 117.749L353.178 116.575H351.889V118.575ZM351.315 118.575V116.575H349.315V118.575H351.315ZM351.315 126V128H353.315V126H351.315ZM355.692 114.832L354.45 116.4L354.457 116.405L354.464 116.41L355.692 114.832ZM366.287 114.801L367.528 116.37L367.535 116.364L367.541 116.359L366.287 114.801ZM369.577 109.972L367.7 109.28L367.697 109.29L369.577 109.972ZM369.607 95.755L371.485 95.067L371.485 95.067L369.607 95.755ZM366.317 90.9858L367.558 89.4177L367.558 89.4177L366.317 90.9858ZM355.662 90.9254L354.448 89.336L354.437 89.3443L355.662 90.9254ZM352.372 95.6342L350.5 94.93L350.5 94.93L352.372 95.6342ZM340.638 126V64.1818H336.638V126H340.638ZM338.638 66.1818H351.496V62.1818H338.638V66.1818ZM349.496 64.1818V87.424H353.496V64.1818H349.496ZM351.496 89.424H351.889V85.424H351.496V89.424ZM353.711 88.2472C354.187 87.1935 354.897 86.0759 355.874 84.8964L352.793 82.3451C351.637 83.7413 350.717 85.1592 350.066 86.6008L353.711 88.2472ZM355.872 84.8988C356.759 83.8312 357.937 82.9081 359.454 82.1497L357.665 78.5719C355.721 79.5441 354.082 80.7942 352.795 82.3427L355.872 84.8988ZM359.462 82.1455C360.857 81.4398 362.7 81.0327 365.079 81.0327V77.0327C362.267 77.0327 359.763 77.5109 357.657 78.5761L359.462 82.1455ZM365.079 81.0327C368.09 81.0327 370.844 81.8154 373.383 83.3889L375.49 79.9889C372.314 78.0208 368.83 77.0327 365.079 77.0327V81.0327ZM373.392 83.3943C375.869 84.912 377.914 87.2398 379.487 90.4973L383.089 88.7577C381.242 84.9318 378.719 81.9672 375.481 79.9835L373.392 83.3943ZM379.489 90.5013C381.029 93.6713 381.854 97.7663 381.854 102.879H385.854C385.854 97.3658 384.969 92.6267 383.087 88.7537L379.489 90.5013ZM381.854 102.879C381.854 107.845 381.051 111.903 379.538 115.13L383.16 116.828C384.987 112.931 385.854 108.255 385.854 102.879H381.854ZM379.536 115.134C378.021 118.385 376.001 120.757 373.508 122.354L375.667 125.722C378.889 123.657 381.376 120.655 383.162 116.823L379.536 115.134ZM373.511 122.352C371.011 123.948 368.208 124.755 365.049 124.755V128.755C368.933 128.755 372.489 127.75 375.664 125.724L373.511 122.352ZM365.049 124.755C362.766 124.755 360.951 124.376 359.533 123.708L357.828 127.326C359.91 128.308 362.341 128.755 365.049 128.755V124.755ZM359.541 123.712C358.016 122.985 356.825 122.1 355.92 121.081L352.928 123.735C354.237 125.211 355.883 126.399 357.819 127.322L359.541 123.712ZM355.931 121.093C354.929 119.945 354.2 118.829 353.71 117.749L350.067 119.4C350.745 120.896 351.706 122.336 352.917 123.723L355.931 121.093ZM351.889 116.575H351.315V120.575H351.889V116.575ZM349.315 118.575V126H353.315V118.575H349.315ZM351.315 124H338.638V128H351.315V124ZM349.225 102.818C349.225 105.754 349.631 108.405 350.497 110.731L354.246 109.334C353.583 107.554 353.225 105.396 353.225 102.818H349.225ZM350.497 110.731C351.366 113.061 352.666 114.987 354.45 116.4L356.933 113.264C355.82 112.382 354.907 111.108 354.246 109.334L350.497 110.731ZM354.464 116.41C356.309 117.845 358.517 118.522 360.974 118.522V114.522C359.286 114.522 357.973 114.072 356.92 113.253L354.464 116.41ZM360.974 118.522C363.455 118.522 365.68 117.833 367.528 116.37L365.045 113.233C363.996 114.064 362.679 114.522 360.974 114.522V118.522ZM367.541 116.359C369.321 114.925 370.61 112.99 371.457 110.654L367.697 109.29C367.055 111.059 366.15 112.343 365.032 113.244L367.541 116.359ZM371.453 110.664C372.315 108.327 372.724 105.7 372.724 102.818H368.724C368.724 105.329 368.368 107.471 367.7 109.28L371.453 110.664ZM372.724 102.818C372.724 99.9606 372.327 97.365 371.485 95.067L367.729 96.4429C368.376 98.2098 368.724 100.323 368.724 102.818H372.724ZM371.485 95.067C370.635 92.7483 369.343 90.8305 367.558 89.4177L365.075 92.5539C366.189 93.4351 367.089 94.6968 367.729 96.4429L371.485 95.067ZM367.558 89.4177C365.706 87.9516 363.47 87.2653 360.974 87.2653V91.2653C362.704 91.2653 364.03 91.726 365.075 92.5539L367.558 89.4177ZM360.974 87.2653C358.51 87.2653 356.295 87.9245 354.448 89.3361L356.876 92.5148C357.926 91.7128 359.252 91.2653 360.974 91.2653V87.2653ZM354.437 89.3443C352.661 90.7198 351.368 92.6213 350.5 94.93L354.243 96.3385C354.904 94.5823 355.805 93.3446 356.886 92.5065L354.437 89.3443ZM350.5 94.93C349.631 97.2391 349.225 99.8828 349.225 102.818H353.225C353.225 100.24 353.583 98.0943 354.243 96.3385L350.5 94.93ZM405.293 64.1818H407.293V62.1818H405.293V64.1818ZM405.293 126V128H407.293V126H405.293ZM392.434 126H390.434V128H392.434V126ZM392.434 64.1818V62.1818H390.434V64.1818H392.434ZM403.293 64.1818V126H407.293V64.1818H403.293ZM405.293 124H392.434V128H405.293V124ZM394.434 126V64.1818H390.434V126H394.434ZM392.434 66.1818H405.293V62.1818H392.434V66.1818ZM424.407 124.008L423.416 125.745L423.428 125.752L424.407 124.008ZM416.499 115.737L414.722 116.656L414.724 116.66L416.499 115.737ZM416.499 90.4727L414.72 89.5584L414.72 89.5584L416.499 90.4727ZM424.317 82.0511L423.294 80.3325L423.289 80.3352L424.317 82.0511ZM444.752 80.5117L444.051 82.385L444.06 82.3882L444.068 82.3913L444.752 80.5117ZM451.694 84.8885L450.287 86.31L450.294 86.3171L451.694 84.8885ZM456.343 92.2535L454.469 92.9544L454.471 92.9586L456.343 92.2535ZM458.003 106.108V108.108H460.003V106.108H458.003ZM418.853 106.108H416.853V108.108H418.853V106.108ZM418.853 98.1396V96.1396H416.853V98.1396H418.853ZM445.899 98.1396V100.14H447.899V98.1396H445.899ZM444.691 93.2195L442.949 94.2011L442.949 94.2011L444.691 93.2195ZM441.341 89.869L440.33 91.5947L440.345 91.6032L440.359 91.6115L441.341 89.869ZM431.229 89.9897L432.251 91.7088L432.258 91.7047L431.229 89.9897ZM427.728 93.5817L429.467 94.5689L429.473 94.5589L427.728 93.5817ZM426.43 98.5621L424.43 98.5402L424.43 98.5512V98.5621H426.43ZM427.697 112.085L425.913 112.988L425.917 112.996L425.922 113.005L427.697 112.085ZM440.858 116.703L440.216 114.809L440.216 114.809L440.858 116.703ZM443.907 114.892L442.527 113.444L442.527 113.444L443.907 114.892ZM445.838 111.934L445.97 109.938L444.493 109.841L443.968 111.225L445.838 111.934ZM457.731 112.719L459.688 113.132L460.165 110.875L457.863 110.723L457.731 112.719ZM454.018 120.205L452.515 118.886L452.514 118.887L454.018 120.205ZM446.834 125.155L447.577 127.012L447.584 127.009L446.834 125.155ZM436.723 124.906C432.225 124.906 428.472 123.996 425.386 122.264L423.428 125.752C427.225 127.883 431.682 128.906 436.723 128.906V124.906ZM425.398 122.271C422.318 120.513 419.951 118.042 418.273 114.815L414.724 116.66C416.749 120.556 419.654 123.599 423.416 125.745L425.398 122.271ZM418.276 114.819C416.599 111.575 415.722 107.667 415.722 103.029H411.722C411.722 108.172 412.696 112.735 414.722 116.656L418.276 114.819ZM415.722 103.029C415.722 98.522 416.595 94.6599 418.278 91.3869L414.72 89.5584C412.7 93.4895 411.722 97.9986 411.722 103.029H415.722ZM418.278 91.3869C419.964 88.1051 422.315 85.5808 425.344 83.767L423.289 80.3352C419.597 82.5461 416.736 85.6361 414.72 89.5584L418.278 91.3869ZM425.34 83.7697C428.365 81.9687 431.965 81.0327 436.209 81.0327V77.0327C431.359 77.0327 427.029 78.1089 423.294 80.3325L425.34 83.7697ZM436.209 81.0327C439.05 81.0327 441.658 81.4897 444.051 82.385L445.452 78.6385C442.573 77.5616 439.487 77.0327 436.209 77.0327V81.0327ZM444.068 82.3913C446.458 83.2604 448.524 84.565 450.287 86.3099L453.101 83.467C450.92 81.3081 448.358 79.6948 445.435 78.6321L444.068 82.3913ZM450.294 86.3171C452.051 88.0385 453.452 90.2342 454.469 92.9544L458.216 91.5527C457.02 88.3567 455.321 85.6424 453.094 83.4599L450.294 86.3171ZM454.471 92.9586C455.474 95.6217 456.003 98.8142 456.003 102.577H460.003C460.003 98.451 459.425 94.7613 458.214 91.5485L454.471 92.9586ZM456.003 102.577V106.108H460.003V102.577H456.003ZM458.003 104.108H418.853V108.108H458.003V104.108ZM420.853 106.108V98.1396H416.853V106.108H420.853ZM418.853 100.14H445.899V96.1396H418.853V100.14ZM447.899 98.1396C447.899 95.9894 447.428 94.0032 446.434 92.2378L442.949 94.2011C443.564 95.2932 443.899 96.587 443.899 98.1396H447.899ZM446.434 92.2378C445.45 90.4907 444.07 89.1107 442.323 88.1265L440.359 91.6115C441.47 92.237 442.323 93.0907 442.949 94.2011L446.434 92.2378ZM442.352 88.1432C440.594 87.1136 438.595 86.6314 436.421 86.6314V90.6314C437.99 90.6314 439.271 90.9742 440.33 91.5947L442.352 88.1432ZM436.421 86.6314C434.147 86.6314 432.053 87.1628 430.2 88.2747L432.258 91.7047C433.423 91.0055 434.791 90.6314 436.421 90.6314V86.6314ZM430.207 88.2706C428.416 89.3353 427 90.7883 425.983 92.6045L429.473 94.5589C430.146 93.3566 431.063 92.415 432.251 91.7088L430.207 88.2706ZM425.988 92.5945C424.964 94.3985 424.453 96.3946 424.43 98.5402L428.429 98.5841C428.446 97.0672 428.8 95.7431 429.467 94.5689L425.988 92.5945ZM424.43 98.5621V106.138H428.43V98.5621H424.43ZM424.43 106.138C424.43 108.677 424.898 110.982 425.913 112.988L429.482 111.182C428.807 109.848 428.43 108.188 428.43 106.138H424.43ZM425.922 113.005C426.956 115.001 428.437 116.577 430.35 117.681L432.349 114.216C431.124 113.509 430.17 112.509 429.473 111.165L425.922 113.005ZM430.35 117.681C432.276 118.792 434.496 119.307 436.934 119.307V115.307C435.065 115.307 433.562 114.916 432.349 114.216L430.35 117.681ZM436.934 119.307C438.551 119.307 440.079 119.079 441.5 118.597L440.216 114.809C439.262 115.132 438.174 115.307 436.934 115.307V119.307ZM441.5 118.597C442.942 118.109 444.215 117.36 445.286 116.34L442.527 113.444C441.908 114.034 441.149 114.493 440.216 114.809L441.5 118.597ZM445.286 116.34C446.363 115.315 447.167 114.07 447.708 112.643L443.968 111.225C443.624 112.132 443.141 112.859 442.527 113.444L445.286 116.34ZM445.707 113.93L457.599 114.714L457.863 110.723L445.97 109.938L445.707 113.93ZM455.774 112.305C455.239 114.837 454.153 117.018 452.515 118.886L455.522 121.524C457.626 119.125 459.015 116.315 459.688 113.132L455.774 112.305ZM452.514 118.887C450.894 120.735 448.77 122.215 446.085 123.301L447.584 127.009C450.774 125.72 453.44 123.899 455.523 121.523L452.514 118.887ZM446.092 123.298C443.455 124.352 440.345 124.906 436.723 124.906V128.906C440.747 128.906 444.378 128.291 447.577 127.012L446.092 123.298ZM486.308 126H484.308V128H486.308V126ZM486.308 64.1818V62.1818H484.308V64.1818H486.308ZM522.439 66.2042L521.628 68.0323L521.628 68.0323L522.439 66.2042ZM529.291 71.8185L527.606 72.895L527.61 72.9015L529.291 71.8185ZM530.137 86.3977L531.901 87.3389L531.906 87.3308L530.137 86.3977ZM526.152 90.8651L527.284 92.5137L527.289 92.5109L526.152 90.8651ZM520.417 93.31L519.979 91.3585L518.417 91.7089V93.31H520.417ZM520.417 93.9137H518.417V95.8301L520.332 95.9119L520.417 93.9137ZM527.028 95.9059L526.001 97.6224L526.008 97.6267L527.028 95.9059ZM532.068 101.067L530.34 102.073L530.344 102.08L532.068 101.067ZM531.555 117.699L529.865 116.63L529.863 116.633L531.555 117.699ZM524.401 123.766L523.549 121.957L523.549 121.957L524.401 123.766ZM499.378 115.315H497.378V117.315H499.378V115.315ZM518.002 113.232L519.281 114.77L519.286 114.765L519.292 114.761L518.002 113.232ZM519.27 103.09L517.578 104.157L517.578 104.157L519.27 103.09ZM515.738 100.011L514.854 101.805L514.863 101.809L515.738 100.011ZM499.378 98.8942V96.8942H497.378V98.8942H499.378ZM499.378 90.0501H497.378V92.0501H499.378V90.0501ZM513.837 89.1143L514.656 90.9387L514.668 90.9333L513.837 89.1143ZM517.157 86.3977L515.524 85.2433L515.517 85.2527L515.511 85.2623L517.157 86.3977ZM516.01 76.799L514.696 78.3066L514.705 78.3148L516.01 76.799ZM499.378 74.7464V72.7464H497.378V74.7464H499.378ZM488.308 126V64.1818H484.308V126H488.308ZM486.308 66.1818H511.06V62.1818H486.308V66.1818ZM511.06 66.1818C515.425 66.1818 518.921 66.831 521.628 68.0323L523.251 64.3761C519.881 62.8809 515.79 62.1818 511.06 62.1818V66.1818ZM521.628 68.0323C524.37 69.249 526.322 70.8845 527.606 72.895L530.977 70.742C529.202 67.9633 526.586 65.8559 523.251 64.3761L521.628 68.0323ZM527.61 72.9015C528.911 74.922 529.585 77.2751 529.585 80.0288H533.585C533.585 76.5845 532.73 73.4641 530.973 70.7356L527.61 72.9015ZM529.585 80.0288C529.585 82.1726 529.158 83.9655 528.368 85.4646L531.906 87.3308C533.047 85.1676 533.585 82.7145 533.585 80.0288H529.585ZM528.372 85.4566C527.556 86.9858 526.444 88.2333 525.016 89.2193L527.289 92.5109C529.241 91.1625 530.785 89.4319 531.901 87.3389L528.372 85.4566ZM525.02 89.2164C523.578 90.2068 521.906 90.9263 519.979 91.3585L520.855 95.2615C523.234 94.7278 525.386 93.8174 527.284 92.5137L525.02 89.2164ZM518.417 93.31V93.9137H522.417V93.31H518.417ZM520.332 95.9119C522.349 95.9981 524.229 96.5629 526.001 97.6224L528.054 94.1894C525.721 92.7939 523.194 92.0306 520.502 91.9155L520.332 95.9119ZM526.008 97.6267C527.769 98.6693 529.212 100.135 530.34 102.073L533.797 100.062C532.349 97.5724 530.432 95.5975 528.047 94.185L526.008 97.6267ZM530.344 102.08C531.419 103.912 532 106.163 532 108.915H536C536 105.59 535.293 102.61 533.793 100.055L530.344 102.08ZM532 108.915C532 111.847 531.277 114.398 529.865 116.63L533.245 118.769C535.093 115.849 536 112.544 536 108.915H532ZM529.863 116.633C528.487 118.818 526.418 120.605 523.549 121.957L525.254 125.575C528.703 123.95 531.404 121.691 533.247 118.765L529.863 116.633ZM523.549 121.957C520.728 123.287 517.145 124 512.72 124V128C517.552 128 521.756 127.224 525.254 125.575L523.549 121.957ZM512.72 124H486.308V128H512.72V124ZM499.378 117.315H510.034V113.315H499.378V117.315ZM510.034 117.315C513.852 117.315 517.078 116.601 519.281 114.77L516.724 111.694C515.586 112.64 513.499 113.315 510.034 113.315V117.315ZM519.292 114.761C521.446 112.943 522.508 110.495 522.508 107.618H518.508C518.508 109.408 517.899 110.703 516.713 111.703L519.292 114.761ZM522.508 107.618C522.508 105.571 522.009 103.684 520.962 102.023L517.578 104.157C518.181 105.112 518.508 106.243 518.508 107.618H522.508ZM520.962 102.023C519.918 100.369 518.443 99.1035 516.614 98.2128L514.863 101.809C516.092 102.408 516.972 103.195 517.578 104.157L520.962 102.023ZM516.623 98.2174C514.78 97.3081 512.662 96.8942 510.335 96.8942V100.894C512.194 100.894 513.678 101.225 514.854 101.805L516.623 98.2174ZM510.335 96.8942H499.378V100.894H510.335V96.8942ZM497.378 98.8942V115.315H501.378V98.8942H497.378ZM499.378 92.0501H509.068V88.0501H499.378V92.0501ZM509.068 92.0501C511.092 92.0501 512.969 91.6969 514.656 90.9387L513.017 87.29C511.928 87.7794 510.625 88.0501 509.068 88.0501V92.0501ZM514.668 90.9333C516.374 90.1536 517.775 89.0247 518.804 87.5332L515.511 85.2623C514.929 86.1051 514.117 86.7872 513.005 87.2954L514.668 90.9333ZM518.79 87.5522C519.887 86.0014 520.395 84.1853 520.395 82.2021H516.395C516.395 83.4788 516.078 84.4598 515.524 85.2433L518.79 87.5522ZM520.395 82.2021C520.395 79.429 519.378 77.0587 517.315 75.2832L514.705 78.3148C515.822 79.2761 516.395 80.5078 516.395 82.2021H520.395ZM517.324 75.2915C515.27 73.5003 512.501 72.7464 509.309 72.7464V76.7464C511.912 76.7464 513.611 77.3609 514.696 78.3065L517.324 75.2915ZM509.309 72.7464H499.378V76.7464H509.309V72.7464ZM497.378 74.7464V90.0501H501.378V74.7464H497.378ZM595.479 112.296L593.719 111.345L593.716 111.351L595.479 112.296ZM585.095 123.132L586.081 124.872L586.084 124.871L585.095 123.132ZM555.575 123.102L556.567 121.366L555.575 123.102ZM545.221 112.266L543.459 113.211L543.459 113.211L545.221 112.266ZM545.221 77.8857L546.984 78.8307L546.984 78.8307L545.221 77.8857ZM555.575 67.0795L556.561 68.8195L556.567 68.816L555.575 67.0795ZM585.095 67.0795L584.103 68.8161L584.112 68.8214L585.095 67.0795ZM595.479 77.8857L593.716 78.8307L593.719 78.8365L595.479 77.8857ZM584.099 84.0433L582.261 84.8327L582.266 84.843L584.099 84.0433ZM578.636 77.2216L577.536 78.8923L577.536 78.8923L578.636 77.2216ZM562.095 77.2216L563.194 78.8923L563.194 78.8923L562.095 77.2216ZM556.601 84.0433L554.768 83.2436L554.763 83.254L556.601 84.0433ZM556.601 106.138L554.763 106.928L554.768 106.938L556.601 106.138ZM562.095 112.96L563.194 111.29L563.194 111.29L562.095 112.96ZM578.636 112.96L577.536 111.29L577.536 111.29L578.636 112.96ZM584.099 106.138L582.266 105.339L582.262 105.349L584.099 106.138ZM597.312 95.0909C597.312 101.583 596.082 106.974 593.719 111.345L597.238 113.247C599.987 108.161 601.312 102.081 601.312 95.0909H597.312ZM593.716 111.351C591.347 115.77 588.145 119.097 584.106 121.394L586.084 124.871C590.819 122.177 594.54 118.28 597.241 113.241L593.716 111.351ZM584.109 121.393C580.069 123.683 575.504 124.845 570.365 124.845V128.845C576.133 128.845 581.388 127.533 586.081 124.872L584.109 121.393ZM570.365 124.845C565.187 124.845 560.604 123.673 556.567 121.366L554.582 124.839C559.279 127.522 564.557 128.845 570.365 128.845V124.845ZM556.567 121.366C552.548 119.069 549.354 115.742 546.984 111.321L543.459 113.211C546.159 118.248 549.868 122.145 554.582 124.839L556.567 121.366ZM546.984 111.321C544.639 106.947 543.418 101.564 543.418 95.0909H539.418C539.418 102.06 540.733 108.127 543.459 113.211L546.984 111.321ZM543.418 95.0909C543.418 88.5966 544.639 83.2038 546.984 78.8307L543.459 76.9406C540.732 82.0253 539.418 88.1028 539.418 95.0909H543.418ZM546.984 78.8307C549.354 74.4108 552.546 71.0953 556.561 68.8195L554.588 65.3396C549.87 68.014 546.16 71.9027 543.459 76.9406L546.984 78.8307ZM556.567 68.816C560.604 66.5091 565.187 65.3366 570.365 65.3366V61.3366C564.557 61.3366 559.279 62.6594 554.582 65.3431L556.567 68.816ZM570.365 65.3366C575.501 65.3366 580.064 66.5079 584.103 68.816L586.088 65.3431C581.393 62.6607 576.136 61.3366 570.365 61.3366V65.3366ZM584.112 68.8214C588.147 71.0979 591.348 74.4131 593.716 78.8307L597.241 76.9406C594.539 71.9003 590.817 68.0115 586.078 65.3377L584.112 68.8214ZM593.719 78.8365C596.082 83.2083 597.312 88.5989 597.312 95.0909H601.312C601.312 88.1005 599.987 82.0209 597.238 76.9348L593.719 78.8365ZM588.061 95.0909C588.061 90.5363 587.381 86.5635 585.932 83.2436L582.266 84.843C583.434 87.5198 584.061 90.9121 584.061 95.0909H588.061ZM585.937 83.254C584.519 79.9541 582.466 77.348 579.735 75.5509L577.536 78.8923C579.514 80.1942 581.103 82.1358 582.262 84.8326L585.937 83.254ZM579.735 75.5509C577.016 73.7612 573.866 72.8974 570.365 72.8974V76.8974C573.183 76.8974 575.547 77.583 577.536 78.8923L579.735 75.5509ZM570.365 72.8974C566.864 72.8974 563.714 73.7612 560.995 75.5509L563.194 78.8923C565.183 77.583 567.548 76.8974 570.365 76.8974V72.8974ZM560.995 75.5509C558.267 77.346 556.205 79.9484 554.768 83.2436L558.434 84.843C559.613 82.1416 561.213 80.1961 563.194 78.8923L560.995 75.5509ZM554.763 83.254C553.339 86.5707 552.669 90.5396 552.669 95.0909H556.669C556.669 90.9088 557.287 87.5126 558.439 84.8326L554.763 83.254ZM552.669 95.0909C552.669 99.6422 553.339 103.611 554.763 106.928L558.439 105.349C557.287 102.669 556.669 99.273 556.669 95.0909H552.669ZM554.768 106.938C556.205 110.233 558.267 112.836 560.995 114.631L563.194 111.29C561.213 109.986 559.613 108.04 558.434 105.339L554.768 106.938ZM560.995 114.631C563.714 116.421 566.864 117.284 570.365 117.284V113.284C567.548 113.284 565.183 112.599 563.194 111.29L560.995 114.631ZM570.365 117.284C573.866 117.284 577.016 116.421 579.735 114.631L577.536 111.29C575.547 112.599 573.183 113.284 570.365 113.284V117.284ZM579.735 114.631C582.466 112.834 584.519 110.228 585.937 106.928L582.262 105.349C581.103 108.046 579.514 109.988 577.536 111.29L579.735 114.631ZM585.932 106.938C587.381 103.618 588.061 99.6455 588.061 95.0909H584.061C584.061 99.2697 583.434 102.662 582.266 105.339L585.932 106.938ZM661.968 112.296L660.209 111.345L660.205 111.351L661.968 112.296ZM651.585 123.132L652.571 124.872L652.573 124.871L651.585 123.132ZM622.064 123.102L623.056 121.366L622.064 123.102ZM611.711 112.266L609.948 113.211L609.948 113.211L611.711 112.266ZM611.711 77.8857L613.473 78.8307L613.473 78.8307L611.711 77.8857ZM622.064 67.0795L623.05 68.8195L623.056 68.816L622.064 67.0795ZM651.585 67.0795L650.592 68.8161L650.602 68.8214L651.585 67.0795ZM661.968 77.8857L660.205 78.8307L660.209 78.8365L661.968 77.8857ZM650.588 84.0433L648.751 84.8327L648.755 84.843L650.588 84.0433ZM645.125 77.2216L644.026 78.8923L644.026 78.8923L645.125 77.2216ZM628.584 77.2216L629.683 78.8923L629.683 78.8923L628.584 77.2216ZM623.09 84.0433L621.257 83.2436L621.253 83.254L623.09 84.0433ZM623.09 106.138L621.253 106.928L621.257 106.938L623.09 106.138ZM628.584 112.96L629.683 111.29L629.683 111.29L628.584 112.96ZM645.125 112.96L644.026 111.29L644.026 111.29L645.125 112.96ZM650.588 106.138L648.755 105.339L648.751 105.349L650.588 106.138ZM663.801 95.0909C663.801 101.583 662.571 106.974 660.209 111.345L663.728 113.247C666.476 108.161 667.801 102.081 667.801 95.0909H663.801ZM660.205 111.351C657.836 115.77 654.634 119.097 650.596 121.394L652.573 124.871C657.309 122.177 661.029 118.28 663.731 113.241L660.205 111.351ZM650.598 121.393C646.558 123.683 641.993 124.845 636.854 124.845V128.845C642.623 128.845 647.878 127.533 652.571 124.872L650.598 121.393ZM636.854 124.845C631.676 124.845 627.093 123.673 623.056 121.366L621.072 124.839C625.768 127.522 631.046 128.845 636.854 128.845V124.845ZM623.056 121.366C619.037 119.069 615.844 115.742 613.473 111.321L609.948 113.211C612.648 118.248 616.357 122.145 621.072 124.839L623.056 121.366ZM613.473 111.321C611.128 106.947 609.907 101.564 609.907 95.0909H605.907C605.907 102.06 607.222 108.127 609.948 113.211L613.473 111.321ZM609.907 95.0909C609.907 88.5966 611.128 83.2038 613.473 78.8307L609.948 76.9406C607.222 82.0253 605.907 88.1028 605.907 95.0909H609.907ZM613.473 78.8307C615.843 74.4108 619.035 71.0953 623.05 68.8195L621.078 65.3396C616.359 68.014 612.649 71.9027 609.948 76.9406L613.473 78.8307ZM623.056 68.816C627.093 66.5091 631.676 65.3366 636.854 65.3366V61.3366C631.046 61.3366 625.768 62.6594 621.072 65.3431L623.056 68.816ZM636.854 65.3366C641.99 65.3366 646.553 66.5079 650.592 68.816L652.577 65.3431C647.883 62.6607 642.626 61.3366 636.854 61.3366V65.3366ZM650.602 68.8214C654.637 71.0979 657.837 74.4131 660.205 78.8307L663.731 76.9406C661.028 71.9003 657.306 68.0115 652.567 65.3377L650.602 68.8214ZM660.209 78.8365C662.571 83.2083 663.801 88.5989 663.801 95.0909H667.801C667.801 88.1005 666.476 82.0209 663.728 76.9348L660.209 78.8365ZM654.55 95.0909C654.55 90.5363 653.87 86.5635 652.422 83.2436L648.755 84.843C649.923 87.5198 650.55 90.9121 650.55 95.0909H654.55ZM652.426 83.254C651.009 79.9541 648.955 77.348 646.224 75.5509L644.026 78.8923C646.004 80.1942 647.592 82.1358 648.751 84.8326L652.426 83.254ZM646.224 75.5509C643.505 73.7612 640.356 72.8974 636.854 72.8974V76.8974C639.672 76.8974 642.036 77.583 644.026 78.8923L646.224 75.5509ZM636.854 72.8974C633.353 72.8974 630.204 73.7612 627.484 75.5509L629.683 78.8923C631.673 77.583 634.037 76.8974 636.854 76.8974V72.8974ZM627.484 75.5509C624.757 77.346 622.695 79.9484 621.257 83.2436L624.923 84.843C626.102 82.1416 627.702 80.1961 629.683 78.8923L627.484 75.5509ZM621.253 83.254C619.828 86.5707 619.158 90.5396 619.158 95.0909H623.158C623.158 90.9088 623.777 87.5126 624.928 84.8326L621.253 83.254ZM619.158 95.0909C619.158 99.6422 619.828 103.611 621.253 106.928L624.928 105.349C623.777 102.669 623.158 99.273 623.158 95.0909H619.158ZM621.257 106.938C622.695 110.233 624.757 112.836 627.484 114.631L629.683 111.29C627.702 109.986 626.102 108.04 624.923 105.339L621.257 106.938ZM627.484 114.631C630.204 116.421 633.353 117.284 636.854 117.284V113.284C634.037 113.284 631.673 112.599 629.683 111.29L627.484 114.631ZM636.854 117.284C640.356 117.284 643.505 116.421 646.224 114.631L644.026 111.29C642.036 112.599 639.672 113.284 636.854 113.284V117.284ZM646.224 114.631C648.955 112.834 651.009 110.228 652.426 106.928L648.751 105.349C647.592 108.046 646.004 109.988 644.026 111.29L646.224 114.631ZM652.422 106.938C653.87 103.618 654.55 99.6455 654.55 95.0909H650.55C650.55 99.2697 649.923 102.662 648.755 105.339L652.422 106.938ZM675.483 126H673.483V128H675.483V126ZM675.483 64.1818V62.1818H673.483V64.1818H675.483ZM688.553 64.1818H690.553V62.1818H688.553V64.1818ZM688.553 91.4386H686.553V93.4386H688.553V91.4386ZM689.368 91.4386V93.4386H690.317L690.918 92.7032L689.368 91.4386ZM711.614 64.1818V62.1818H710.665L710.065 62.9172L711.614 64.1818ZM727.28 64.1818L728.82 65.4581L731.535 62.1818H727.28V64.1818ZM704.34 91.8611L702.8 90.5849L701.841 91.7424L702.686 92.9857L704.34 91.8611ZM727.552 126V128H731.33L729.206 124.875L727.552 126ZM711.916 126L710.252 127.109L710.845 128H711.916V126ZM694.983 100.585L696.647 99.4756L695.148 97.2262L693.435 99.3171L694.983 100.585ZM688.553 108.433L687.006 107.165L686.553 107.718V108.433H688.553ZM688.553 126V128H690.553V126H688.553ZM677.483 126V64.1818H673.483V126H677.483ZM675.483 66.1818H688.553V62.1818H675.483V66.1818ZM686.553 64.1818V91.4386H690.553V64.1818H686.553ZM688.553 93.4386H689.368V89.4386H688.553V93.4386ZM690.918 92.7032L713.164 65.4464L710.065 62.9172L687.819 90.174L690.918 92.7032ZM711.614 66.1818H727.28V62.1818H711.614V66.1818ZM725.74 62.9056L702.8 90.5849L705.88 93.1374L728.82 65.4581L725.74 62.9056ZM702.686 92.9857L725.898 127.125L729.206 124.875L705.994 90.7366L702.686 92.9857ZM727.552 124H711.916V128H727.552V124ZM713.581 124.891L696.647 99.4756L693.318 101.693L710.252 127.109L713.581 124.891ZM693.435 99.3171L687.006 107.165L690.1 109.7L696.53 101.852L693.435 99.3171ZM686.553 108.433V126H690.553V108.433H686.553ZM688.553 124H675.483V128H688.553V124ZM767.124 81.9606L765.134 82.158L765.312 83.9606H767.124V81.9606ZM751.156 75.169L751.895 77.0277L751.905 77.0234L751.916 77.0189L751.156 75.169ZM747.775 77.614L746.175 76.414L746.168 76.4239L746.161 76.434L747.775 77.614ZM746.628 81.1758L748.627 81.2485L748.628 81.2121V81.1758H746.628ZM747.323 84.0735L745.615 85.1147L745.624 85.1297L745.634 85.1446L747.323 84.0735ZM749.466 86.2166L748.356 87.8807L748.369 87.8893L748.382 87.8978L749.466 86.2166ZM752.605 87.756L751.906 89.63L751.92 89.6352L751.934 89.6402L752.605 87.756ZM756.408 88.8427L756.873 86.8975L756.859 86.8942L756.845 86.891L756.408 88.8427ZM761.962 90.1708L761.497 92.116L761.511 92.1193L761.525 92.1225L761.962 90.1708ZM769.388 92.5856L768.572 94.4119L768.572 94.4119L769.388 92.5856ZM775.244 96.2983L776.573 94.8045L776.573 94.8045L775.244 96.2983ZM779.077 101.49L777.256 102.318L777.26 102.325L777.263 102.333L779.077 101.49ZM780.496 108.342L782.496 108.353L782.496 108.339L782.496 108.326L780.496 108.342ZM777.598 118.182L775.951 117.048L775.949 117.051L777.598 118.182ZM769.388 124.612L770.168 126.453L770.173 126.451L769.388 124.612ZM743.459 124.581L742.692 126.428L742.696 126.43L743.459 124.581ZM734.826 117.79L733.172 118.914L733.177 118.921L733.181 118.927L734.826 117.79ZM731.597 106.591V104.591H729.551L729.597 106.637L731.597 106.591ZM744.244 106.591L746.239 106.456L746.113 104.591H744.244V106.591ZM746.025 111.783L744.428 112.987L744.437 113L744.447 113.013L746.025 111.783ZM750.281 114.892L749.542 116.75L749.554 116.755L749.567 116.76L750.281 114.892ZM762.113 114.952L761.386 113.089L761.378 113.092L762.113 114.952ZM765.947 112.266L767.516 113.505L767.516 113.505L765.947 112.266ZM766.067 104.81L764.544 106.107L764.552 106.116L764.56 106.125L766.067 104.81ZM762.506 102.396L761.718 104.234L761.726 104.238L762.506 102.396ZM756.801 100.585L756.314 102.524L756.323 102.527L756.332 102.529L756.801 100.585ZM750.07 98.8942L750.557 96.9544L750.549 96.9526L750.542 96.9508L750.07 98.8942ZM737.724 92.9478L736.392 94.4393L736.392 94.4393L737.724 92.9478ZM733.226 82.0511L735.226 82.0599L735.226 82.0502L735.226 82.0404L733.226 82.0511ZM736.215 72.2411L734.597 71.0655L734.591 71.0731L736.215 72.2411ZM768.663 65.691L767.829 67.5088L767.833 67.5107L768.663 65.691ZM776.692 72.2411L775.041 73.3696L775.041 73.3696L776.692 72.2411ZM779.65 81.9606V83.9606H781.684L781.65 81.9278L779.65 81.9606ZM769.114 81.7632C768.821 78.8128 767.526 76.3871 765.201 74.6753L762.829 77.8964C764.166 78.8811 764.943 80.2386 765.134 82.158L769.114 81.7632ZM765.201 74.6753C762.917 72.9938 759.966 72.2635 756.559 72.2635V76.2635C759.431 76.2635 761.45 76.8814 762.829 77.8964L765.201 74.6753ZM756.559 72.2635C754.25 72.2635 752.173 72.5887 750.396 73.3192L751.916 77.0189C753.077 76.542 754.603 76.2635 756.559 76.2635V72.2635ZM750.418 73.3103C748.678 74.0014 747.223 75.0167 746.175 76.414L749.375 78.814C749.897 78.1185 750.696 77.5038 751.895 77.0277L750.418 73.3103ZM746.161 76.434C745.139 77.8319 744.628 79.4347 744.628 81.1758H748.628C748.628 80.2606 748.882 79.4889 749.39 78.794L746.161 76.434ZM744.63 81.1031C744.577 82.5428 744.879 83.908 745.615 85.1147L749.03 83.0323C748.76 82.589 748.599 82.0223 748.627 81.2485L744.63 81.1031ZM745.634 85.1446C746.323 86.2312 747.245 87.1398 748.356 87.8807L750.575 84.5525C749.876 84.0861 749.369 83.5659 749.012 83.0024L745.634 85.1446ZM748.382 87.8978C749.428 88.5715 750.607 89.1456 751.906 89.63L753.304 85.8821C752.228 85.4811 751.315 85.0289 750.549 84.5355L748.382 87.8978ZM751.934 89.6402C753.205 90.0925 754.551 90.4765 755.971 90.7944L756.845 86.891C755.569 86.6052 754.38 86.2648 753.276 85.8718L751.934 89.6402ZM755.943 90.7878L761.497 92.116L762.427 88.2257L756.873 86.8975L755.943 90.7878ZM761.525 92.1225C764.107 92.7005 766.454 93.466 768.572 94.4119L770.203 90.7593C767.814 89.6929 765.211 88.8485 762.399 88.2191L761.525 92.1225ZM768.572 94.4119C770.66 95.344 772.434 96.4747 773.914 97.7921L776.573 94.8045C774.753 93.1839 772.623 91.8395 770.203 90.7593L768.572 94.4119ZM773.914 97.7921C775.358 99.0775 776.467 100.582 777.256 102.318L780.898 100.662C779.876 98.4139 778.43 96.4571 776.573 94.8045L773.914 97.7921ZM777.263 102.333C778.049 104.025 778.477 106.019 778.496 108.358L782.496 108.326C782.474 105.514 781.956 102.94 780.891 100.647L777.263 102.333ZM778.496 108.331C778.477 111.764 777.607 114.641 775.951 117.048L779.245 119.316C781.412 116.169 782.474 112.486 782.496 108.353L778.496 108.331ZM775.949 117.051C774.306 119.446 771.894 121.367 768.602 122.772L770.173 126.451C774.046 124.797 777.107 122.433 779.247 119.314L775.949 117.051ZM768.607 122.77C765.355 124.148 761.338 124.875 756.499 124.875V128.875C761.721 128.875 766.297 128.093 770.168 126.453L768.607 122.77ZM756.499 124.875C751.708 124.875 747.632 124.141 744.223 122.733L742.696 126.43C746.692 128.081 751.309 128.875 756.499 128.875V124.875ZM744.226 122.734C740.864 121.338 738.305 119.305 736.471 116.653L733.181 118.927C735.493 122.271 738.689 124.766 742.692 126.428L744.226 122.734ZM736.48 116.665C734.688 114.029 733.69 110.693 733.596 106.546L729.597 106.637C729.704 111.384 730.86 115.513 733.172 118.914L736.48 116.665ZM731.597 108.591H744.244V104.591H731.597V108.591ZM742.248 106.727C742.41 109.11 743.105 111.232 744.428 112.987L747.622 110.579C746.851 109.557 746.359 108.218 746.239 106.456L742.248 106.727ZM744.447 113.013C745.754 114.688 747.474 115.928 749.542 116.75L751.02 113.034C749.546 112.447 748.429 111.614 747.602 110.554L744.447 113.013ZM749.567 116.76C751.622 117.545 753.892 117.918 756.348 117.918V113.918C754.296 113.918 752.521 113.607 750.995 113.024L749.567 116.76ZM756.348 117.918C758.749 117.918 760.931 117.57 762.848 116.813L761.378 113.092C760.035 113.623 758.373 113.918 756.348 113.918V117.918ZM762.84 116.816C764.752 116.07 766.348 114.985 767.516 113.505L764.377 111.027C763.734 111.841 762.775 112.547 761.386 113.089L762.84 116.816ZM767.516 113.505C768.706 111.998 769.305 110.241 769.305 108.312H765.305C765.305 109.36 764.998 110.24 764.377 111.027L767.516 113.505ZM769.305 108.312C769.305 106.495 768.752 104.845 767.575 103.496L764.56 106.125C765.033 106.667 765.305 107.351 765.305 108.312H769.305ZM767.59 103.514C766.523 102.259 765.04 101.296 763.285 100.554L761.726 104.238C763.11 104.823 764.002 105.47 764.544 106.107L767.59 103.514ZM763.293 100.557C761.611 99.8361 759.595 99.2008 757.269 98.6402L756.332 102.529C758.514 103.055 760.302 103.627 761.718 104.234L763.293 100.557ZM757.288 98.6447L750.557 96.9544L749.582 100.834L756.314 102.524L757.288 98.6447ZM750.542 96.9508C745.55 95.7364 741.763 93.8742 739.056 91.4563L736.392 94.4393C739.722 97.4144 744.166 99.5164 749.597 100.838L750.542 96.9508ZM739.056 91.4563C736.522 89.1926 735.208 86.1372 735.226 82.0599L731.226 82.0423C731.204 87.101 732.889 91.31 736.392 94.4393L739.056 91.4563ZM735.226 82.0404C735.208 78.6818 736.094 75.833 737.838 73.4091L734.591 71.0731C732.31 74.2435 731.204 77.9346 731.227 82.0619L735.226 82.0404ZM737.833 73.4168C739.634 70.9377 742.127 68.964 745.386 67.5195L743.766 63.8626C739.942 65.5573 736.86 67.9503 734.597 71.0655L737.833 73.4168ZM745.386 67.5195C748.634 66.08 752.376 65.3366 756.65 65.3366V61.3366C751.908 61.3366 747.601 62.1629 743.766 63.8626L745.386 67.5195ZM756.65 65.3366C761.012 65.3366 764.721 66.0826 767.829 67.5088L769.497 63.8733C765.764 62.1603 761.464 61.3366 756.65 61.3366V65.3366ZM767.833 67.5107C770.982 68.9471 773.358 70.9074 775.041 73.3696L778.344 71.1126C776.203 67.9806 773.226 65.5742 769.493 63.8714L767.833 67.5107ZM775.041 73.3696C776.713 75.8153 777.596 78.6667 777.651 81.9934L781.65 81.9278C781.584 77.8894 780.495 74.2612 778.344 71.1126L775.041 73.3696ZM779.65 79.9606H767.124V83.9606H779.65V79.9606Z" fill="#C5FDD4"/>
</g>
</g>
<defs>
<filter id="filter0_f_126_134" x="549.701" y="-610.299" width="1465.5" height="1462.22" filterUnits="userSpaceOnUse" color-interpolation-filters="sRGB">
<feFlood flood-opacity="0" result="BackgroundImageFix"/>
<feBlend mode="normal" in="SourceGraphic" in2="BackgroundImageFix" result="shape"/>
<feGaussianBlur stdDeviation="250" result="effect1_foregroundBlur_126_134"/>
</filter>
<filter id="filter1_f_126_134" x="-434" y="-294" width="1278" height="1253.17" filterUnits="userSpaceOnUse" color-interpolation-filters="sRGB">
<feFlood flood-opacity="0" result="BackgroundImageFix"/>
<feBlend mode="normal" in="SourceGraphic" in2="BackgroundImageFix" result="shape"/>
<feGaussianBlur stdDeviation="200" result="effect1_foregroundBlur_126_134"/>
</filter>
<filter id="filter2_f_126_134" x="-300" y="-306" width="1622.58" height="811.049" filterUnits="userSpaceOnUse" color-interpolation-filters="sRGB">
<feFlood flood-opacity="0" result="BackgroundImageFix"/>
<feBlend mode="normal" in="SourceGraphic" in2="BackgroundImageFix" result="shape"/>
<feGaussianBlur stdDeviation="150" result="effect1_foregroundBlur_126_134"/>
</filter>
<filter id="filter3_d_126_134" x="84.0224" y="60.6501" width="716.473" height="86.2554" filterUnits="userSpaceOnUse" color-interpolation-filters="sRGB">
<feFlood flood-opacity="0" result="BackgroundImageFix"/>
<feColorMatrix in="SourceAlpha" type="matrix" values="0 0 0 0 0 0 0 0 0 0 0 0 0 0 0 0 0 0 127 0" result="hardAlpha"/>
<feOffset dx="10" dy="10"/>
<feGaussianBlur stdDeviation="5"/>
<feComposite in2="hardAlpha" operator="out"/>
<feColorMatrix type="matrix" values="0 0 0 0 0.341667 0 0 0 0 0.0555208 0 0 0 0 0.0555208 0 0 0 0.25 0"/>
<feBlend mode="normal" in2="BackgroundImageFix" result="effect1_dropShadow_126_134"/>
<feBlend mode="normal" in="SourceGraphic" in2="effect1_dropShadow_126_134" result="shape"/>
</filter>
<clipPath id="clip0_126_134">
<rect width="1360" height="722" fill="white"/>
</clipPath>
</defs>
</svg>
