<svg width="68" height="71" viewBox="0 0 68 71" fill="none" xmlns="http://www.w3.org/2000/svg">
<path d="M60.2083 13.3125C60.7218 13.3125 61.2179 13.5067 61.6049 13.8591C61.9919 14.2115 62.2436 14.6983 62.3135 15.2295L62.3333 15.5312V55.4687C62.3331 56.0309 62.1286 56.572 61.761 56.9828C61.3935 57.3936 60.8903 57.6433 60.3531 57.6817C59.816 57.72 59.2849 57.544 58.8673 57.1892C58.4496 56.8345 58.1765 56.3274 58.1031 55.7705L58.0833 55.4687V15.5312C58.0833 14.9428 58.3072 14.3785 58.7057 13.9624C59.1042 13.5463 59.6447 13.3125 60.2083 13.3125ZM34.595 18.8949L34.8301 18.6168C35.318 18.1074 35.9671 17.8015 36.6557 17.7562C37.3443 17.711 38.025 17.9297 38.5701 18.3712L38.8365 18.6168L52.9946 33.4025C53.4825 33.9119 53.7755 34.5897 53.8188 35.3087C53.8621 36.0276 53.6527 36.7383 53.2298 37.3075L52.9946 37.5827L38.8393 52.3862C38.3319 52.9287 37.6445 53.2471 36.9188 53.2756C36.1931 53.3042 35.4846 53.0407 34.9396 52.5396C34.3946 52.0385 34.0547 51.338 33.99 50.5828C33.9254 49.8276 34.1409 49.0753 34.5921 48.4812L34.8273 48.2031L44.1461 38.4583H8.49996C7.80598 38.4582 7.13617 38.1922 6.61757 37.7107C6.09897 37.2292 5.76765 36.5657 5.68646 35.8461L5.66663 35.5C5.66672 34.7754 5.9215 34.076 6.38265 33.5346C6.8438 32.9931 7.47925 32.6472 8.16846 32.5624L8.49996 32.5417H44.1546L34.8301 22.7999C34.3423 22.2905 34.0492 21.6127 34.0059 20.8938C33.9626 20.1748 34.1721 19.4641 34.595 18.8949Z" fill="#BDD7F5"/>
</svg>
