<svg width="41" height="40" viewBox="0 0 41 40" fill="none" xmlns="http://www.w3.org/2000/svg">
<g clip-path="url(#clip0_100_61)">
<path d="M28.4167 15.9998C28.4167 18.1215 27.5739 20.1563 26.0736 21.6566C24.5733 23.1569 22.5385 23.9998 20.4167 23.9998C18.295 23.9998 16.2602 23.1569 14.7599 21.6566C13.2596 20.1563 12.4167 18.1215 12.4167 15.9998C12.4167 13.878 13.2596 11.8432 14.7599 10.3429C16.2602 8.84261 18.295 7.99976 20.4167 7.99976C22.5385 7.99976 24.5733 8.84261 26.0736 10.3429C27.5739 11.8432 28.4167 13.878 28.4167 15.9998Z" fill="white"/>
<path fill-rule="evenodd" clip-rule="evenodd" d="M19.6007 39.9838C8.93375 39.5558 0.416748 30.7718 0.416748 19.9998C0.416748 8.95376 9.37075 -0.000244141 20.4167 -0.000244141C31.4627 -0.000244141 40.4167 8.95376 40.4167 19.9998C40.4167 31.0458 31.4627 39.9998 20.4167 39.9998C20.3254 40.0003 20.2341 40.0003 20.1427 39.9998C19.9617 39.9998 19.7807 39.9938 19.6007 39.9838ZM7.58275 32.6198C7.43321 32.1903 7.38231 31.7327 7.43383 31.2809C7.48535 30.8291 7.63795 30.3948 7.88033 30.01C8.1227 29.6253 8.44861 29.3001 8.83387 29.0585C9.21913 28.817 9.65385 28.6653 10.1057 28.6148C17.9017 27.7518 22.9797 27.8298 30.7377 28.6328C31.1903 28.6799 31.626 28.8296 32.0119 29.0706C32.3978 29.3116 32.7236 29.6375 32.9645 30.0235C33.2054 30.4094 33.355 30.8452 33.4021 31.2977C33.4491 31.7503 33.3922 32.2075 33.2357 32.6348C36.5607 29.2707 38.4227 24.7297 38.4167 19.9998C38.4167 10.0588 30.3577 1.99976 20.4167 1.99976C10.4757 1.99976 2.41675 10.0588 2.41675 19.9998C2.41675 24.9158 4.38775 29.3718 7.58275 32.6198Z" fill="white"/>
</g>
<defs>
<clipPath id="clip0_100_61">
<rect width="40" height="40.0004" fill="white" transform="translate(0.416748 -0.000244141)"/>
</clipPath>
</defs>
</svg>
