<svg width="86" height="70" viewBox="0 0 86 70" fill="none" xmlns="http://www.w3.org/2000/svg">
<path d="M58.9395 0L7.61365 15.4565L31.3657 28.1284L82.6497 12.2879L58.9393 0H58.9395ZM58.6465 4.13981L72.5547 11.3489L59.0751 15.5119L44.721 8.33392L58.6465 4.13981ZM85.1804 15.5655L31.6414 32.1019L31.0734 32.2774H31.073L31.0654 32.2796L30.5346 31.9961L3.74725 18.0234L3.71307 18.0033C2.6754 17.3942 2.22448 17.5689 1.71206 18.0273C1.19982 18.4852 0.687398 19.5276 0.546194 20.8526C0.263971 23.5028 1.21803 26.8669 4.98967 28.3424L5.06621 28.3727L31.3579 42.0872L63.5441 32.1459V25.5031L77.6645 21.5026V27.7843L85.5 25.3644C84.6899 22.3034 84.5097 19.0086 85.1804 15.5657V15.5655ZM74.3202 26.4877L66.8884 28.5934V51.095L70.966 46.3088L74.3202 49.0342V26.4877ZM85.1804 29.5219L77.6645 31.8435V41.7405L85.5 39.3204C84.6899 36.2596 84.5097 32.9648 85.1804 29.5219ZM2.57489 31.5693C2.2399 31.5772 1.98462 31.7399 1.71243 31.9832C1.20001 32.4414 0.687584 33.4836 0.54638 34.8088C0.264157 37.4589 1.21821 40.8229 4.98985 42.2985L5.0664 42.3286L31.3579 56.0436L63.5441 46.1023V36.2048L31.0734 46.2338L3.83216 32.0242C3.53004 31.9027 3.23238 31.7663 2.93998 31.6156C2.82028 31.5832 2.69772 31.5677 2.57489 31.5693ZM3.83216 32.0242L3.83625 32.026L3.78441 31.9987L3.83216 32.0242ZM85.1804 43.4783L77.6645 45.7998V55.6969L85.5 53.277C84.6899 50.216 84.5097 46.9212 85.1804 43.4783ZM2.57489 45.5257C2.2399 45.5336 1.98462 45.6963 1.71243 45.9396C1.20001 46.3978 0.687584 47.4399 0.54638 48.7651C0.264157 51.4153 1.21821 54.7793 4.98985 56.2549L5.0664 56.285L31.3579 70L63.5441 60.0587V50.1612L31.0734 60.1902L3.83216 45.9806C3.53004 45.8591 3.23238 45.7227 2.93998 45.572C2.82028 45.5396 2.69772 45.5241 2.57489 45.5257ZM3.83216 45.9806L3.83625 45.9824L3.78441 45.9551L3.83216 45.9806ZM71.3571 51.4007L64.1366 59.8755L76.9256 55.9252L71.3573 51.4007H71.3571Z" fill="white"/>
</svg>
