<svg width="85" height="70" viewBox="0 0 85 70" fill="none" xmlns="http://www.w3.org/2000/svg">
<path d="M58.4395 0L7.11365 15.4565L30.8657 28.1284L82.1497 12.2879L58.4393 0H58.4395ZM58.1465 4.13981L72.0547 11.3489L58.5751 15.5119L44.221 8.33392L58.1465 4.13981ZM84.6804 15.5655L31.1414 32.1019L30.5734 32.2774H30.573L30.5654 32.2796L30.0346 31.9961L3.24725 18.0234L3.21307 18.0033C2.1754 17.3942 1.72448 17.5689 1.21206 18.0273C0.699821 18.4852 0.187398 19.5276 0.0461939 20.8526C-0.236029 23.5028 0.718029 26.8669 4.48967 28.3424L4.56621 28.3727L30.8579 42.0872L63.0441 32.1459V25.5031L77.1645 21.5026V27.7843L85 25.3644C84.1899 22.3034 84.0097 19.0086 84.6804 15.5657V15.5655ZM73.8202 26.4877L66.3884 28.5934V51.095L70.466 46.3088L73.8202 49.0342V26.4877ZM84.6804 29.5219L77.1645 31.8435V41.7405L85 39.3204C84.1899 36.2596 84.0097 32.9648 84.6804 29.5219ZM2.07489 31.5693C1.7399 31.5772 1.48462 31.7399 1.21243 31.9832C0.700006 32.4414 0.187584 33.4836 0.0463799 34.8088C-0.235843 37.4589 0.718214 40.8229 4.48985 42.2985L4.5664 42.3286L30.8579 56.0436L63.0441 46.1023V36.2048L30.5734 46.2338L3.33216 32.0242C3.03004 31.9027 2.73238 31.7663 2.43998 31.6156C2.32028 31.5832 2.19772 31.5677 2.07489 31.5693ZM3.33216 32.0242L3.33625 32.026L3.28441 31.9987L3.33216 32.0242ZM84.6804 43.4783L77.1645 45.7998V55.6969L85 53.277C84.1899 50.2159 84.0097 46.9212 84.6804 43.4783ZM2.07489 45.5257C1.7399 45.5336 1.48462 45.6963 1.21243 45.9396C0.700006 46.3978 0.187584 47.4399 0.0463799 48.7651C-0.235843 51.4153 0.718214 54.7793 4.48985 56.2549L4.5664 56.285L30.8579 70L63.0441 60.0587V50.1612L30.5734 60.1902L3.33216 45.9806C3.03004 45.8591 2.73238 45.7227 2.43998 45.572C2.32028 45.5396 2.19772 45.5241 2.07489 45.5257ZM3.33216 45.9806L3.33625 45.9824L3.28441 45.9551L3.33216 45.9806ZM70.8571 51.4007L63.6366 59.8755L76.4256 55.9252L70.8573 51.4007H70.8571Z" fill="white"/>
</svg>
